<?xml version="1.0" encoding="UTF-8"?>
<svg viewBox="0 0 64 64" xmlns="http://www.w3.org/2000/svg">
 <defs>
  <linearGradient id="c" x1=".51163" x2=".49922" y1="-.042371" y2=".73303">
   <stop stop-color="#fff" offset="0"/>
   <stop stop-color="#fff" stop-opacity="0" offset="1"/>
  </linearGradient>
  <radialGradient id="d" cx="388.41" cy="487.31" r="267.21" gradientTransform="matrix(.11583 0 0 .10097 -12.727 -16.889)" gradientUnits="userSpaceOnUse">
   <stop stop-color="#94deec" offset="0"/>
   <stop stop-color="#7eeefe" offset="0"/>
   <stop stop-color="#3f98cb" offset=".625"/>
   <stop stop-color="#49bacd" offset="1"/>
  </radialGradient>
 </defs>
 <path d="m16.585 6.6045l-1.256 2.6469 3.6487 6.1099-6.6458-0.0174-1.4624 2.755 1.2922 2.1761 9.9107 0.265 5.6359 9.4264-11.203 0.0069-4.6948-7.9234-3.236-0.0035-1.1366 2.2633 3.3627 5.6356h-7.8982l-1.5818 2.5388 1.5818 2.6539h7.4312l-3.2179 4.9033 1.3429 2.6225 3.0333 0.0384 4.7201-7.5642h11.384l-5.321 8.8998-9.4691-0.0384-1.618 2.6993 1.4624 2.0785 6.7507 0.0069-3.9491 6.5947 1.4913 2.5877 3.1745 0.0069 3.7174-6.2041 2.798 5.1369 3.0297 0.1918 1.5528-2.5144-4.445-7.7211 5.5237-9.2242 5.1508 8.6174-4.7889 7.8711 1.6108 2.7062 2.5989-0.1814 3.3953-5.6182 3.9382 6.5982 3.0731 0.0558 1.5999-2.6434-3.7066-6.2076 6.0159 0.2441 1.6904-2.4307-1.4768-2.5528-9.1615-0.1709-5.2449-8.7883h10.671l4.5282 7.5781 2.8306-0.0209 1.5927-2.4028-2.9863-5.1544h7.1996l1.7556-2.8213-1.7556-2.3714-7.3154 0.0035 3.3265-5.545-1.7483-2.5911-2.6026-0.0069-5.1762 8.1466-10.414 0.0069 5.5924-9.3358 9.0782 0.0069 1.3936-2.3714-1.361-2.5282-6.1282-0.0872 3.598-6.0088-1.6578-2.8736-3.008 0.279-3.6523 6.1099-3.3229-5.5485-3.2034 0.1639-1.3067 2.1692 4.7346 8.3907-5.3535 8.9522-5.7372-9.6148 4.5644-7.5642-1.4298-2.3505-2.9537-0.1325-3.1564 5.0637-3.5871-6.0158-3.4134-0.0593z" fill="url(#d)" stroke="#000" stroke-width=".643"/>
 <path d="m17.411 5.2537l-0.9858 2.2621 3.7087 6.4482-6.9428-0.0173-1.3126 2.4489 1.1454 1.8757 9.9436 0.382 5.9506 9.8913-11.916 0.0468-4.6123-7.9248-2.8896-0.0433-1.0753 1.962 3.5519 5.9387h-8.2559l-1.3472 2.3942 1.3886 2.269 7.7972 0.0797-3.3683 5.0143 1.1952 2.4372 2.6491-0.0018 4.6786-7.5692h12.053l-5.4758 9.4497-9.6338 0.0417-1.3828 2.3936 1.2298 1.779 7.1286-0.0329-4.0866 6.8883 1.3824 2.323 2.6637-0.0329 3.9831-6.4617 2.9971 5.3652 2.6456 0.1899 1.3188-2.2106-4.5324-7.6449 6.0472-9.8505 5.5155 9.3294-4.8289 7.7136 1.4584 2.3208 2.0569-0.06 3.6252-5.9214 4.1587 6.7721 2.7296 0.0951 1.4891-2.3384-4.0138-6.4253 6.4481 0.2417 1.3298-2.1277-1.4509-2.5276-8.7524 0.1895-5.6493-9.4189 11.435-0.0797 4.4487 7.5033 2.5741 0.0191 1.3165-2.1001-3.2234-5.4223 7.6937-0.0399 1.4352-2.4347-1.5593-2.0292-7.4766-0.0763 3.3508-5.7692-1.5108-2.3264-2.2259-0.0468-5.2094 8.1458-11.182 0.1663 6.032-10.12 8.9602 0.0468 1.2864-2.1089-1.2957-2.1845-6.2688-0.0863 3.6176-6.3082-1.3805-2.5264-2.7483 0.1965-3.7536 6.3684-3.6369-5.6929-2.7335 0.1623-1.1183 1.7492 4.7342 8.4274-5.7973 9.5812-6.0916-10.197 4.6498-7.609-1.2392-1.9686-2.6536-0.1711-3.3492 5.2927-3.6069-6.1955-3.2707-0.0587v-2e-5l0.0414-0.0399z" fill="none"/>
 <path d="m16.698 6.8733l-1.0685 2.3459 3.9299 6.4712-6.9895-0.0174-1.3999 2.4239 1.1985 1.845 9.8795 0.265 6.0109 10.059-11.953-0.0232-4.6635-7.8933-2.7673-0.0336-1.1053 1.9923 3.5502 5.9066-8.2419 0.0602-1.3943 2.2377 1.4881 2.2625h7.7125l-3.8429 5.2646 1.3429 2.6225 3.0333 0.0384 4.5951-7.8954 12.103 0.0602-5.9147 9.1708-9.4691-0.0384-1.618 2.6993 1.4624 2.0785 6.7507 0.0069-3.9491 6.5947 1.4913 2.5877 3.1745 0.0069 3.7174-6.2041 2.798 5.1369 3.0297 0.1918 1.5528-2.5144-4.445-7.7211 5.5237-9.2242 5.1508 8.6174-4.7889 7.8711 1.6108 2.7062 2.5989-0.1813 3.3953-5.6182 3.9382 6.5982 3.0731 0.0558 1.5999-2.6435-3.7066-6.2076 6.016 0.2441 1.6904-2.4307-1.4768-2.5528-9.1615-0.1709-5.7137-9.1194 11.358 0.0301 4.3095 7.8792 2.8306-0.0209 1.5927-2.4028-3.4863-5.4856 7.6683 0.0301 1.4431-2.5202-1.5056-2.0704-7.6904 0.0035 3.4515-5.8159-1.4983-2.3202-2.2588 0.0232-5.1137 8.1165-11.226-0.0232 5.9362-9.9078 9.1407 0.0672 1.1748-2.1908-1.1423-2.1368-6.4719-0.1474 3.7386-6.2798-1.4859-2.5575-2.633 0.2338-3.7773 6.4712-3.526-5.8646-2.8441 0.1188-1.1348 1.8982 4.6845 8.4057-5.6683 9.4055-6.1792-10.126 4.6055-7.4313-1.2735-2.1699-2.5474-0.1024-3.4064 5.3648-3.6809-6.3469-3.1321-0.0593z" fill="url(#c)"/>
</svg>
